<svg width="200" height="200" viewBox="0 0 200 200" fill="none" xmlns="http://www.w3.org/2000/svg">
  <rect width="200" height="200" fill="#F3F4F6"/>
  <path d="M100 70C88.9543 70 80 78.9543 80 90C80 101.046 88.9543 110 100 110C111.046 110 120 101.046 120 90C120 78.9543 111.046 70 100 70ZM100 105C92.268 105 85 97.732 85 90C85 82.268 92.268 75 100 75C107.732 75 115 82.268 115 90C115 97.732 107.732 105 100 105Z" fill="#9CA3AF"/>
  <path d="M100 115C85.641 115 73 127.641 73 142V150H127V142C127 127.641 114.359 115 100 115ZM120 145H80V142C80 132.611 88.611 124 98 124H102C111.389 124 120 132.611 120 142V145Z" fill="#9CA3AF"/>
  <text x="100" y="180" text-anchor="middle" font-family="Arial, sans-serif" font-size="12" fill="#6B7280">No Image</text>
</svg> 